<?xml version="1.0" standalone="no"?>
<!DOCTYPE svg PUBLIC "-//W3C//DTD SVG 1.1//EN"
  "http://www.w3.org/Graphics/SVG/1.1/DTD/svg11.dtd">
<svg width="82mm" height="82.0000009536743mm" viewBox="-38.5 -92.3730010986328 82 82.0000009536743" xmlns="http://www.w3.org/2000/svg" version="1.1">
	<title>svgOutput</title>
	<desc>made with tinkercad</desc>
<path d="M 34.29199981689453 -75.69699859619139 L 35.6514892578125 -73.72799682617186 L 36.48899841308594 -72.51499938964842 L 38.36800003051758 -69.13500213623045 L 39.9119987487793 -65.58899688720702 L 39.92920684814453 -65.53600311279295 L 41.10599899291992 -61.91099929809569 L 41.941001892089844 -58.13499832153319 L 42.037017822265625 -57.34400177001952 L 42.40700149536133 -54.29600143432616 L 42.5 -50.43000030517577 L 42.40724563598633 -49.15200042724608 L 42.220001220703125 -46.5719985961914 L 41.569000244140625 -42.759998321533196 L 41.07883834838867 -40.95999908447265 L 40.553001403808594 -39.028999328613274 L 39.18199920654297 -35.41299819946288 L 37.87514114379883 -32.76800155639648 L 37.46900177001953 -31.945999145507805 L 35.42900085449219 -28.660999298095696 L 33.082000732421875 -25.587999343872063 L 32.768001556396484 -25.25026893615722 L 32.14111328125 -24.57600021362304 L 30.448999404907227 -22.756000518798825 L 27.55500030517578 -20.1919994354248 L 24.576000213623047 -18.026319503784176 L 24.427000045776367 -17.91799926757812 L 21.818416595458984 -16.38400077819824 L 21.0939998626709 -15.958000183105465 L 17.58799934387207 -14.328000068664547 L 16.384000778198242 -13.904438018798825 L 13.940999984741211 -13.045000076293942 L 10.187000274658203 -12.119000434875485 L 8.192000389099121 -11.827443122863768 L 6.361999988555908 -11.560000419616697 L 2.5 -11.373000144958494 L 0 -11.494050979614256 L -1.3619999885559082 -11.560000419616697 L -5.186999797821045 -12.119000434875485 L -8.192000389099121 -12.860243797302243 L -8.940999984741211 -13.045000076293942 L -12.588000297546387 -14.328000068664547 L -16.0939998626709 -15.958000183105465 L -16.384000778198242 -16.12853622436523 L -16.818416595458984 -16.38400077819824 L -19.427000045776367 -17.91799926757812 L -22.55500030517578 -20.1919994354248 L -24.576000213623047 -21.982547760009762 L -25.448999404907227 -22.756000518798825 L -27.141111373901367 -24.57600021362304 L -28.082000732421875 -25.587999343872063 L -30.429000854492188 -28.660999298095696 L -32.46900177001953 -31.945999145507805 L -32.768001556396484 -32.551155090332024 L -32.87514114379883 -32.76800155639648 L -34.18199920654297 -35.41299819946288 L -35.553001403808594 -39.028999328613274 L -36.07883834838867 -40.95999908447265 L -36.569000244140625 -42.759998321533196 L -37.220001220703125 -46.5719985961914 L -37.40724563598633 -49.15200042724608 L -37.5 -50.43000030517577 L -37.40700149536133 -54.29600143432616 L -37.037017822265625 -57.34400177001952 L -36.941001892089844 -58.13499832153319 L -36.10599899291992 -61.91099929809569 L -34.92920684814453 -65.53600311279295 L -34.9119987487793 -65.58899688720702 L -33.36800003051758 -69.13500213623045 L -32.768001556396484 -70.21429443359374 L -31.48900032043457 -72.51499938964842 L -30.6514892578125 -73.72799682617186 L -29.29199981689453 -75.69699859619139 L -26.798999786376953 -78.65299987792967 L -24.576000213623047 -80.82456207275389 L -24.033000946044922 -81.35500335693358 L -23.329376220703125 -81.9199981689453 L -21.01799964904785 -83.77600097656249 L -17.784000396728516 -85.89600372314452 L -16.384000778198242 -86.63096618652342 L -14.361000061035156 -87.69300079345702 L -10.779999732971191 -89.15100097656249 L -8.192000389099121 -89.92356109619139 L -7.074999809265137 -90.25700378417967 L -3.2809998989105225 -90.99999999999999 L 0 -91.31803894042967 L 0.5669999718666077 -91.3730010986328 L 4.433000087738037 -91.3730010986328 L 8.192000389099121 -91.00862884521483 L 8.281000137329102 -90.99999999999999 L 12.074999809265137 -90.25700378417967 L 15.779999732971191 -89.15100097656249 L 16.384000778198242 -88.9050827026367 L 19.361000061035156 -87.69300079345702 L 22.784000396728516 -85.89600372314452 L 24.576000213623047 -84.72128295898436 L 26.01799964904785 -83.77600097656249 L 28.329376220703125 -81.9199981689453 L 29.033000946044922 -81.35500335693358 L 31.798999786376953 -78.65299987792967 L 32.768001556396484 -77.50403594970702 L 34.29199981689453 -75.69699859619139 z" fill="none" stroke="rgb(255,0,0)" stroke-width="0.001mm" />
</svg>